<svg width="20" height="25" viewBox="0 0 20 25" fill="none" xmlns="http://www.w3.org/2000/svg">
<g filter="url(#filter0_d)">
<path d="M18.4201 15.6942H9.11543L9.58262 14.7427L17.3451 14.7286C17.6076 14.7286 17.8326 14.5411 17.8795 14.2817L18.9545 8.26455C18.9826 8.10674 18.9404 7.94424 18.8373 7.8208C18.7863 7.76005 18.7228 7.71112 18.651 7.67739C18.5792 7.64366 18.501 7.62595 18.4217 7.62549L8.54668 7.59268L8.4623 7.1958C8.40918 6.94268 8.18105 6.7583 7.92168 6.7583H5.50762C5.36133 6.7583 5.22104 6.81641 5.1176 6.91985C5.01417 7.02329 4.95605 7.16358 4.95605 7.30986C4.95605 7.45615 5.01417 7.59644 5.1176 7.69988C5.22104 7.80331 5.36133 7.86143 5.50762 7.86143H7.4748L7.84355 9.61455L8.75137 14.0099L7.58262 15.9177C7.52192 15.9996 7.48536 16.0969 7.47708 16.1985C7.4688 16.3001 7.48912 16.402 7.53574 16.4927C7.62949 16.6786 7.81855 16.7958 8.02793 16.7958H9.00918C8.79999 17.0736 8.687 17.4121 8.6873 17.7599C8.6873 18.6442 9.40605 19.363 10.2904 19.363C11.1748 19.363 11.8936 18.6442 11.8936 17.7599C11.8936 17.4114 11.7779 17.0724 11.5717 16.7958H14.0889C13.8797 17.0736 13.7667 17.4121 13.767 17.7599C13.767 18.6442 14.4857 19.363 15.3701 19.363C16.2545 19.363 16.9732 18.6442 16.9732 17.7599C16.9732 17.4114 16.8576 17.0724 16.6514 16.7958H18.4217C18.7248 16.7958 18.9732 16.5489 18.9732 16.2442C18.9723 16.0981 18.9137 15.9583 18.81 15.8552C18.7064 15.7522 18.5663 15.6943 18.4201 15.6942V15.6942ZM8.77637 8.68018L17.7732 8.70986L16.892 13.6442L9.8248 13.6567L8.77637 8.68018ZM10.2904 18.2536C10.0186 18.2536 9.79668 18.0317 9.79668 17.7599C9.79668 17.488 10.0186 17.2661 10.2904 17.2661C10.5623 17.2661 10.7842 17.488 10.7842 17.7599C10.7842 17.8908 10.7322 18.0164 10.6396 18.109C10.547 18.2016 10.4214 18.2536 10.2904 18.2536V18.2536ZM15.3701 18.2536C15.0982 18.2536 14.8764 18.0317 14.8764 17.7599C14.8764 17.488 15.0982 17.2661 15.3701 17.2661C15.642 17.2661 15.8639 17.488 15.8639 17.7599C15.8639 17.8908 15.8118 18.0164 15.7193 18.109C15.6267 18.2016 15.5011 18.2536 15.3701 18.2536V18.2536Z" fill="white"/>
</g>
<defs>
<filter id="filter0_d" x="0" y="0.727051" width="24" height="32" filterUnits="userSpaceOnUse" color-interpolation-filters="sRGB">
<feFlood flood-opacity="0" result="BackgroundImageFix"/>
<feColorMatrix in="SourceAlpha" type="matrix" values="0 0 0 0 0 0 0 0 0 0 0 0 0 0 0 0 0 0 127 0"/>
<feOffset dy="4"/>
<feGaussianBlur stdDeviation="2"/>
<feColorMatrix type="matrix" values="0 0 0 0 0 0 0 0 0 0 0 0 0 0 0 0 0 0 0.25 0"/>
<feBlend mode="normal" in2="BackgroundImageFix" result="effect1_dropShadow"/>
<feBlend mode="normal" in="SourceGraphic" in2="effect1_dropShadow" result="shape"/>
</filter>
</defs>
</svg>
